PathFileType  4	(X/Y/Z) C:\Users\antoi\Documents\MyRepositories\mobilecap\ResultsAnalysis
DataRate	CameraRate	NumFrames	NumMarkers	Units	OrigDataRate	OrigDataStartFrame	OrigNumFrames
100.0	100.0	4	51	mm	100.0	136	216
Frame#	Time	r_knee			r_shank_antsup			r_ankle			r_calc			r_5meta			r_toe			L_knee			L_shank_antsup			L_ankle			L_calc			L_5meta			L_toe			r_sh2			r_sh3			r_sh4			L_sh2			L_sh3			r_thigh1			r_thigh2			r_thigh3			r_thigh4			r_thigh5			L_thigh1			L_thigh2			L_thigh3			L_thigh4			r.ASIS			r.PSIS			L.ASIS			L.PSIS			C7			R_Shoulder			L_Shoulder			R_Sternum			L_Sternum			R_humerus			R_elbow_med			R_elbow_lat			R_forearm			R_wrist_radius			R_wrist_ulna			L_humerus			L_elbow_med			L_elbow_lat			L_forearm			L_wrist_radius			L_wrist_ulna			R_HJC			L_HJC			R_HJC_reg			L_HJC_reg			
		X1	Y1	Z1	X2	Y2	Z2	X3	Y3	Z3	X4	Y4	Z4	X5	Y5	Z5	X6	Y6	Z6	X7	Y7	Z7	X8	Y8	Z8	X9	Y9	Z9	X10	Y10	Z10	X11	Y11	Z11	X12	Y12	Z12	X13	Y13	Z13	X14	Y14	Z14	X15	Y15	Z15	X16	Y16	Z16	X17	Y17	Z17	X18	Y18	Z18	X19	Y19	Z19	X20	Y20	Z20	X21	Y21	Z21	X22	Y22	Z22	X23	Y23	Z23	X24	Y24	Z24	X25	Y25	Z25	X26	Y26	Z26	X27	Y27	Z27	X28	Y28	Z28	X29	Y29	Z29	X30	Y30	Z30	X31	Y31	Z31	X32	Y32	Z32	X33	Y33	Z33	X34	Y34	Z34	X35	Y35	Z35	X36	Y36	Z36	X37	Y37	Z37	X38	Y38	Z38	X39	Y39	Z39	X40	Y40	Z40	X41	Y41	Z41	X42	Y42	Z42	X43	Y43	Z43	X44	Y44	Z44	X45	Y45	Z45	X46	Y46	Z46	X47	Y47	Z47	X48	Y48	Z48	X49	Y49	Z49	X50	Y50	Z50	X51	Y51	Z51	

136	1.35000000	-69.48657	413.85478	-416.42858	-73.04989	341.67492	-390.68285	-252.53435	101.15357	-422.66904	-329.64362	69.69046	-462.41909	-167.94746	47.03151	-381.03504	-116.68556	58.84709	-433.64311	-61.22435	399.75356	-746.09675	-47.95164	321.18253	-751.99900	-257.01068	100.48645	-720.34260	-339.18825	73.44815	-676.74699	-176.65365	40.45108	-741.79512	-126.10213	58.07302	-684.88310	-131.38639	244.56959	-386.89532	-135.49043	380.03633	-405.48911	-202.63916	284.49219	-403.82137	-116.73440	375.58869	-771.06782	-183.08116	273.46559	-768.67687	-242.86671	660.16713	-424.06458	-156.42193	589.01318	-411.42975	-173.79335	537.57120	-372.87047	-309.45567	591.25124	-364.17349	-224.73075	511.26591	-375.63318	-223.60170	637.81622	-734.17430	-116.17110	551.73543	-745.32367	-300.97487	552.19531	-753.32030	-185.36183	468.56786	-758.12738	-278.78670	716.95676	-431.44525	-443.17526	775.86122	-520.61921	-251.87097	702.83452	-682.84860	-435.80703	767.32198	-626.23053	-79.38761	1157.92380	-552.45198	-85.88460	1110.50919	-441.39738	-34.10814	1108.72186	-650.16273	-35.81594	1025.54706	-510.80876	-26.97718	1013.49375	-557.07391	28.48364	1101.03034	-285.45196	114.99460	1022.75471	-242.48943	86.20065	1094.83067	-217.44455	131.33061	1145.20042	-316.71983	168.75098	1180.41760	-410.85341	211.18273	1173.49433	-397.50507	52.35861	1099.37246	-681.98826	242.98369	1003.50202	-732.76719	234.10142	1063.39937	-777.00748	219.16001	1120.50390	-674.54677	217.48218	1156.01536	-560.92291	248.65115	1174.48965	-570.98280	-357.31558	658.62107	-461.08505	-334.81690	649.95074	-659.92086	-353.59131	655.63940	-467.53408	-341.99636	642.20216	-633.72270	
137	1.36000000	-69.19050	416.70080	-414.98214	-73.41314	344.26623	-389.38984	-251.36326	102.90294	-423.33401	-328.40945	72.40591	-463.76117	-167.63209	47.47480	-381.49943	-115.87545	58.57472	-433.85375	-62.74025	403.64676	-747.12716	-49.53624	325.23379	-753.46725	-255.92242	101.92735	-720.37212	-338.14794	75.83963	-676.57982	-176.35165	40.58421	-741.67930	-125.39367	57.83348	-684.95782	-131.11733	246.75457	-386.66896	-135.95828	382.30960	-404.59112	-202.51080	286.24697	-404.13630	-119.12928	378.94133	-771.45078	-184.35747	276.28528	-769.08524	-233.18978	670.21732	-422.89257	-149.19302	595.67432	-409.86637	-168.86468	544.85622	-371.32905	-302.30684	604.20211	-363.23623	-220.92761	520.79725	-374.34408	-215.98220	648.02064	-734.58434	-112.35783	557.61946	-746.77287	-297.12690	565.50639	-752.14566	-185.09716	477.03749	-757.72144	-269.43903	732.84695	-430.59445	-435.16807	790.09911	-519.38189	-244.17455	719.04666	-682.52820	-428.38922	781.70846	-625.12900	-101.35892	1173.04185	-555.87824	-88.52399	1134.45590	-441.30974	-36.66007	1135.69346	-649.91693	-25.31271	1067.67112	-506.97353	-26.52774	1040.35723	-558.65964	19.23985	1133.06351	-281.16059	104.34376	1058.11387	-229.01803	73.64298	1131.55860	-210.05812	119.02622	1174.93285	-311.84896	158.06186	1203.86494	-407.67296	200.15404	1199.11302	-392.87747	49.13080	1129.18268	-683.55678	240.96165	1041.21254	-745.61753	229.17071	1103.53656	-786.06455	215.28457	1154.09068	-679.80773	215.10582	1183.56470	-564.82419	246.26528	1202.39810	-573.99820	-347.79430	673.77926	-460.16852	-326.30423	665.29405	-659.12397	-343.98274	670.62272	-466.30998	-333.31010	657.41263	-632.80384	
138	1.37000000	-69.66616	420.38524	-412.79734	-74.72741	347.80724	-387.44526	-250.09321	104.93924	-423.82141	-327.04461	75.64043	-464.81557	-167.19195	47.90581	-381.93095	-114.96532	58.36535	-433.93568	-64.98594	408.25715	-748.02608	-51.80114	330.03753	-754.74542	-254.62984	103.52107	-720.38915	-337.02611	78.66071	-676.40035	-175.94107	40.96786	-741.70071	-124.66030	57.54060	-684.90668	-131.47080	249.65555	-385.84984	-137.59599	385.11803	-403.55088	-203.01049	288.47850	-404.00729	-122.22425	382.83607	-771.56951	-185.97502	279.24837	-768.99203	-223.68043	681.10609	-422.08619	-142.26881	603.36041	-408.27293	-164.45569	553.45098	-369.65273	-295.42716	618.08311	-362.65595	-217.42717	531.48006	-372.94037	-208.32544	658.98168	-735.35832	-108.88710	564.07787	-748.13620	-293.24115	579.92749	-751.13655	-185.25268	486.55963	-757.27477	-260.00638	749.98591	-429.92665	-426.88814	805.13578	-518.38498	-236.06917	736.31352	-682.40938	-420.62812	797.13429	-624.27969	-122.64072	1188.87392	-555.82865	-90.64296	1160.46830	-440.94572	-39.45238	1164.03640	-650.55096	-15.34904	1108.96877	-504.45524	-26.84116	1069.12373	-561.06876	9.47377	1165.02648	-276.40335	91.66776	1092.37911	-215.09593	59.54811	1167.32363	-202.16031	105.33646	1203.08032	-306.00587	146.10688	1225.43365	-403.46984	187.92386	1223.09655	-387.09532	45.47888	1159.62187	-685.44455	236.93225	1078.82212	-760.45332	222.53392	1143.44744	-796.20597	211.08250	1187.41394	-686.78941	212.88063	1209.75458	-571.08838	244.25425	1228.96950	-578.86223	-337.98713	690.00711	-459.46478	-317.34587	681.67870	-658.51670	-333.96733	686.28613	-465.41888	-324.10310	673.67797	-632.28210	
139	1.38000000	-71.01393	424.94628	-410.22916	-76.92078	352.17126	-384.98002	-248.68961	107.05099	-424.12807	-325.65427	79.39934	-465.30742	-166.58774	48.32891	-382.24565	-114.05236	58.20500	-433.86055	-67.98737	413.74683	-748.94231	-54.83805	335.68299	-755.62869	-253.18181	105.14136	-720.27352	-335.76678	81.74052	-676.32273	-175.40303	41.46723	-741.74700	-123.91575	57.33914	-684.90332	-132.42131	253.17965	-384.36652	-140.33334	388.37336	-402.38983	-204.10731	291.17354	-403.52050	-126.18685	387.42644	-771.64182	-188.07517	282.59199	-768.73544	-213.89004	692.83898	-421.48558	-135.76232	611.78982	-406.56336	-160.70695	563.25121	-367.87460	-288.84541	632.93636	-362.34161	-214.37971	543.25857	-371.53419	-200.94203	670.82840	-736.42068	-105.91026	571.22497	-749.61021	-289.37543	595.41772	-749.98138	-185.97746	497.34909	-757.07417	-250.57580	768.08820	-429.64323	-418.38048	820.96967	-517.50257	-227.57616	754.77589	-682.32885	-412.65327	813.42266	-623.38599	-135.51612	1209.23865	-555.35826	-92.60770	1188.13939	-440.50968	-42.38663	1193.43853	-651.37897	-11.93085	1141.55123	-504.92055	-26.81100	1099.14973	-563.03474	-0.51652	1196.55308	-271.07045	77.22800	1124.96987	-200.57543	44.41923	1201.54737	-193.60866	91.14531	1229.64586	-298.93977	133.55131	1245.34572	-398.00788	174.98578	1245.55162	-379.89454	41.56817	1190.65707	-687.66046	230.67964	1115.98794	-777.11866	214.32511	1182.54294	-807.27300	206.38920	1220.08192	-695.33096	210.06138	1234.40939	-579.29236	241.82825	1254.22347	-585.64724	-327.91238	707.09652	-458.97700	-308.01683	699.14862	-658.11981	-323.62938	703.00451	-464.88446	-314.59435	691.09839	-631.90932	
